<svg width="168" height="315" viewBox="0 0 168 315" fill="none" xmlns="http://www.w3.org/2000/svg">
<path d="M61.8715 314.188C64.2481 302.916 66.3251 291.881 66.2686 280.188C63.6519 269.283 61.6398 258.234 61.7076 246.947C61.9591 233.702 59.9641 220.23 63.6547 207.578C62.6261 192.635 68.1535 177.659 73.4859 164.518C74.2856 159.539 67.6025 166.215 64.8416 165.796C59.7918 167.58 48.9857 166.466 51.8426 174.665C54.5385 181.677 53.2102 194.032 44.1873 194.699C37.8941 194.92 31.2901 196.54 33.8531 187.261C33.288 180.588 34.8846 171.346 32.1039 165.819C29.4844 166.856 25.8022 164.303 28.6903 161.759C27.9188 161.123 26.7715 160.857 26.7912 159.556C26.6782 158.36 26.91 157.744 27.9471 156.59C26.1075 155.508 22.9396 154.97 22.3744 152.632C23.9908 145.05 24.4656 144.241 18.195 138.974C-15.5402 110.919 -0.28051 58.7894 46.9425 71.0852C72.0079 80.3615 57.3106 93.5451 74.9694 81.4359C79.4908 78.8687 83.5346 75.6089 88.2114 73.5025C92.1959 71.1955 98.3563 71.0683 98.4128 65.1225C99.4357 60.0899 95.0499 56.2788 95.1771 51.1501C91.2379 45.7981 87.3835 38.8034 90.1274 32.2809C90.8141 26.1626 88.6212 19.5383 92.3231 14.0025C92.3514 11.4212 95.6943 10.7512 96.737 9.09438C96.915 7.66378 98.9384 8.04547 99.4385 6.66859C99.6674 6.25298 99.9698 6.30104 100.606 6.10313C102.132 5.64794 102.101 4.56509 103.358 4.32759C104.907 3.17689 105.025 1.68409 107.546 2.13363C108.916 -0.128193 110.468 0.536215 112.822 1.95551C114.294 2.3796 115.679 1.33068 117.267 1.78305C119.471 2.74432 121.554 2.37395 123.215 4.08728C126.502 3.86676 129.927 4.96941 131.357 8.23491C133.468 16.0382 136.161 23.0272 135.254 30.9973C136.141 33.6606 136.26 37.1268 135.951 40.0446C135.745 41.2009 134.875 42.2725 135.059 43.4373C135.268 44.2261 135.282 44.2205 134.697 44.6954C134.005 44.9782 134.663 45.4871 134.428 45.9394C132.733 47.4181 130.724 49.1936 129.121 50.8843C128.966 56.6887 122.933 63.2367 127.991 68.2806C132.106 72.7759 138.212 73.9181 143.375 76.7256C144.192 76.8529 145.138 77.2458 145.288 78.1591C147.204 81.2069 151.853 81.761 154.755 83.8447C173.259 97.1725 165.524 133.421 164.795 153.529C166.067 175.847 160.918 197.727 158.366 219.752C157.671 227.179 162.009 234.669 157.666 241.587C156.501 243.736 157.29 247.564 154.452 248.372C152.797 249.221 152.313 251.615 149.776 250.939C146.102 253.36 146.116 264.228 144.093 268.927C141.595 275.935 140.744 282.978 141.021 290.355C141.021 298.308 142.804 306.187 142.321 314.205C136.746 312.761 116.165 317.706 117.736 311.242C120.46 302.023 114.721 293.301 114.17 284.174C114.452 269.441 113.74 254.847 108.479 240.846C104.395 234.222 102.954 246.905 101.315 249.52C96.1691 260.894 93.931 273.159 92.8374 285.506C92.1733 291.381 90.3732 297.007 88.0814 302.441C86.7335 306.227 87.8836 310.295 87.7028 314.205L61.8715 314.188ZM65.1072 119.672C61.5466 128.004 54.2106 135.363 50.1499 143.056C53.0803 144.51 53.2357 155.92 56.6747 151.298C65.3162 141.298 66.2291 132.451 65.1072 119.675V119.672ZM50.0595 171.089C47.5388 172.44 44.7836 165.612 43.1248 169.313C43.2972 177.114 44.0064 186.704 45.2526 193.396C54.1315 189.624 50.8507 178.527 50.0595 171.092V171.089ZM147.888 172.966C148.312 166.543 146.758 117.362 145.008 145.542C144.749 149.412 145.424 153.653 143.672 156.811C144.941 162.276 145.56 167.716 147.888 172.969V172.966Z" fill="#021060"/>
</svg>
